<svg xmlns="http://www.w3.org/2000/svg" viewBox="0 0 512 512" id="matchbox">
  <g>
    <ellipse cx="313.097" cy="102.98" rx="5.703" ry="11.413"></ellipse>
    <ellipse cx="256" cy="102.98" rx="5.703" ry="11.413"></ellipse>
    <path d="M147,156h44V128.576c-8.15-3.914-13.8-13.765-13.8-25.6,0-15.372,9.533-27.413,21.7-27.413s21.7,12.041,21.7,27.413c0,11.737-5.56,21.525-13.606,25.5V156h41V128.528c-8.1-3.945-13.7-13.764-13.7-25.548,0-15.372,9.533-27.413,21.7-27.413s21.7,12.041,21.7,27.413c0,11.784-5.6,21.6-13.7,25.549V156h41V128.481c-8.046-3.976-13.606-13.764-13.606-25.5,0-15.372,9.533-27.413,21.7-27.413s21.7,12.041,21.7,27.413c0,11.831-5.65,21.682-13.8,25.6V156h44V57H147Z"></path>
    <ellipse cx="198.903" cy="102.98" rx="5.703" ry="11.413"></ellipse>
    <path d="M133,175.419V451.581A3.419,3.419,0,0,0,136.419,455H375.581A3.419,3.419,0,0,0,379,451.581V175.419A3.419,3.419,0,0,0,375.581,172H136.419A3.419,3.419,0,0,0,133,175.419Zm52.444,141.865c3.9-20.878,17.59-37.3,27.551-47.831.034-.036.069-.073.1-.108,6.422-6.544,12.688-13.69,18.749-20.6,5.056-5.767,10.286-11.731,15.664-17.419a8,8,0,0,1,12.352.887c14.1,20,15.856,41.941,4.818,60.187-.02.033-.04.066-.061.1a67.61,67.61,0,0,0-3.611,6.953c-.516,1.09-1.028,2.171-1.557,3.236a16.8,16.8,0,0,0,.79,15.168c4.268,7.206,12.041,6.523,14.318,6.142,4.677-.785,10.623-4.064,11.987-10.723.022-.112.048-.224.076-.335a9.006,9.006,0,0,0,.035-3.042c-.011-.1-.019-.192-.026-.288-.669-8.96-.743-16.985-.729-20.971.035-9.475.05-13.4,4-16.046a8.028,8.028,0,0,1,8.808-.087,61.606,61.606,0,0,1,9.9,8.517l.032.033a65.45,65.45,0,0,1,18.658,40.155,74.053,74.053,0,0,1-9.5,43.429c-12.152,21.629-36.618,35.692-61.626,35.692q-1.621,0-3.244-.08c-25.919-1.27-50.789-17.884-61.888-41.342A68.614,68.614,0,0,1,185.444,317.284Z"></path>
    <path d="M253.718,384.271c20.211.983,40.361-10.065,50.162-27.512,11.175-19.6,10.231-42.363-1.839-58.857.1,3.289.274,6.82.538,10.384a24.393,24.393,0,0,1-.39,8.359c-2.514,11.934-12.3,21-24.978,23.132s-24.46-3.173-30.769-13.827a33.122,33.122,0,0,1-1.574-29.843c.055-.126.113-.25.175-.373.513-1.025,1-2.068,1.5-3.12a81.186,81.186,0,0,1,4.476-8.541c3.78-6.272,8.193-18.252.9-33.884-2.716,3.032-5.4,6.1-8.041,9.1-6.19,7.059-12.589,14.356-19.307,21.206-13.591,14.385-21.023,27-23.391,39.684a52.5,52.5,0,0,0,4.31,31.844C214.155,370.34,233.528,383.282,253.718,384.271Z"></path>
  </g>
</svg>
