<svg xmlns="http://www.w3.org/2000/svg" viewBox="0 0 96 96" id="match-stick">
  <path d="M48,94a7.07,7.07,0,0,0,7.13-7V49C63.56,46.47,69,39.4,69,30.1,69,21.24,58.68,9.79,52.53,3.75a6.74,6.74,0,0,0-9.06,0C37.32,9.79,27,21.24,27,30.1c0,9.3,5.44,16.37,13.87,18.9V87A7.07,7.07,0,0,0,48,94ZM40.56,39.05c0-2.37,2.81-6.61,7.31-11a.52.52,0,0,1,.18,0h.05c4.53,4.44,7.34,8.68,7.34,11a7,7,0,0,1-1,3.86A6.53,6.53,0,0,1,51,45.49a9.08,9.08,0,0,1-6,0,6.53,6.53,0,0,1-3.39-2.58A7,7,0,0,1,40.56,39.05Z"></path>
</svg>
